<svg id="visual" viewBox="0 0 2000 600" width="2000" height="600" xmlns="http://www.w3.org/2000/svg" xmlns:xlink="http://www.w3.org/1999/xlink" version="1.1"><path d="M0 526L10.8 527.7C21.7 529.3 43.3 532.7 64.8 532.2C86.3 531.7 107.7 527.3 129.2 527.7C150.7 528 172.3 533 193.8 526C215.3 519 236.7 500 258.2 498.5C279.7 497 301.3 513 322.8 516.8C344.3 520.7 365.7 512.3 387.2 513C408.7 513.7 430.3 523.3 451.8 521.3C473.3 519.3 494.7 505.7 516.2 498.2C537.7 490.7 559.3 489.3 580.8 491.2C602.3 493 623.7 498 645.2 506.7C666.7 515.3 688.3 527.7 709.8 528.2C731.3 528.7 752.7 517.3 774.2 510.7C795.7 504 817.3 502 838.8 501.8C860.3 501.7 881.7 503.3 903.2 510.3C924.7 517.3 946.3 529.7 967.8 525.5C989.3 521.3 1010.7 500.7 1032.2 490C1053.7 479.3 1075.3 478.7 1096.8 483.5C1118.3 488.3 1139.7 498.7 1161.2 504.5C1182.7 510.3 1204.3 511.7 1225.8 508.3C1247.3 505 1268.7 497 1290.2 500.2C1311.7 503.3 1333.3 517.7 1354.8 522.3C1376.3 527 1397.7 522 1419.2 518.2C1440.7 514.3 1462.3 511.7 1483.8 506.2C1505.3 500.7 1526.7 492.3 1548.2 494C1569.7 495.7 1591.3 507.3 1612.8 511.8C1634.3 516.3 1655.7 513.7 1677.2 507.3C1698.7 501 1720.3 491 1741.8 494.2C1763.3 497.3 1784.7 513.7 1806.2 516.2C1827.7 518.7 1849.3 507.3 1870.8 502.5C1892.3 497.7 1913.7 499.3 1935.2 503.5C1956.7 507.7 1978.3 514.3 1989.2 517.7L2000 521L2000 601L1989.2 601C1978.3 601 1956.7 601 1935.2 601C1913.7 601 1892.3 601 1870.8 601C1849.3 601 1827.7 601 1806.2 601C1784.7 601 1763.3 601 1741.8 601C1720.3 601 1698.7 601 1677.2 601C1655.7 601 1634.3 601 1612.8 601C1591.3 601 1569.7 601 1548.2 601C1526.7 601 1505.3 601 1483.8 601C1462.3 601 1440.7 601 1419.2 601C1397.7 601 1376.3 601 1354.8 601C1333.3 601 1311.7 601 1290.2 601C1268.7 601 1247.3 601 1225.8 601C1204.3 601 1182.7 601 1161.2 601C1139.7 601 1118.3 601 1096.8 601C1075.3 601 1053.7 601 1032.2 601C1010.7 601 989.3 601 967.8 601C946.3 601 924.7 601 903.2 601C881.7 601 860.3 601 838.8 601C817.3 601 795.7 601 774.2 601C752.7 601 731.3 601 709.8 601C688.3 601 666.7 601 645.2 601C623.7 601 602.3 601 580.8 601C559.3 601 537.7 601 516.2 601C494.7 601 473.3 601 451.8 601C430.3 601 408.7 601 387.2 601C365.7 601 344.3 601 322.8 601C301.3 601 279.7 601 258.2 601C236.7 601 215.3 601 193.8 601C172.3 601 150.7 601 129.2 601C107.7 601 86.3 601 64.8 601C43.3 601 21.7 601 10.8 601L0 601Z" fill="#050505" stroke-linecap="round" stroke-linejoin="miter"></path></svg>